<svg width="805" height="750" viewBox="0 0 805 750" fill="#fafafa" xmlns="http://www.w3.org/2000/svg">
<g clip-path="url(#clip0_102_2)">
<path d="M69.4941 2.92969C35.8477 11.1328 9.90528 36.3281 2.3584 67.6758C0.157228 77.1973 1.65013e-06 99.9023 0.314455 281.543L0.786134 484.717L4.08789 488.818C15.5654 503.174 34.7471 503.174 46.2246 488.818C49.5264 484.717 49.5264 484.424 49.998 320.654L50.3125 156.738H402.5H754.687L755.002 320.654C755.474 484.424 755.474 484.717 758.775 488.818C770.253 503.174 789.435 503.174 800.912 488.818L804.214 484.717L804.686 281.543C805.157 55.3711 805.629 67.5293 794.466 46.582C787.233 33.3984 770.41 17.1387 756.731 10.5469C751.386 7.91016 741.638 4.54102 734.877 2.92969C722.928 0 716.481 0 401.871 0.146484C91.0342 0.146484 80.6572 0.292969 69.4941 2.92969ZM730.317 50.5371C738.336 54.1992 746.826 62.2559 750.757 69.5801C753.115 74.1211 753.901 79.541 754.373 92.5781L755.002 109.863H402.657H50.3125V95.5078C50.3125 87.7441 51.0986 78.6621 52.042 75.5859C55.6582 63.4277 67.6074 52.002 80.3428 48.6328C83.8018 47.6074 198.263 47.168 404.858 47.3145C718.84 47.6074 724.186 47.6074 730.317 50.5371Z" fill="black"/>
<path d="M121.538 705C118.61 705 116.063 703.918 113.898 701.753C111.734 699.588 110.651 697.042 110.651 694.113V576.457C110.651 573.528 111.734 570.982 113.898 568.817C116.063 566.652 118.61 565.57 121.538 565.57H132.425C135.736 565.57 138.728 566.461 141.402 568.244C144.076 570.027 146.05 572.446 147.323 575.502L176.928 647.509C176.928 647.636 176.992 647.7 177.119 647.7C177.247 647.7 177.31 647.636 177.31 647.509L206.915 575.502C208.189 572.446 210.162 570.027 212.836 568.244C215.51 566.461 218.503 565.57 221.813 565.57H233.464C236.393 565.57 238.94 566.652 241.104 568.817C243.269 570.982 244.351 573.528 244.351 576.457V694.113C244.351 697.042 243.269 699.588 241.104 701.753C238.94 703.918 236.393 705 233.464 705H224.296C221.368 705 218.821 703.918 216.656 701.753C214.619 699.588 213.6 697.042 213.6 694.113V619.814C213.6 619.687 213.537 619.623 213.409 619.623C213.155 619.623 213.027 619.687 213.027 619.814L194.691 663.171C193.418 666.227 191.381 668.646 188.579 670.429C185.905 672.212 182.913 673.103 179.602 673.103H174.636C171.326 673.103 168.27 672.212 165.468 670.429C162.794 668.646 160.821 666.227 159.547 663.171L141.211 619.814C141.211 619.687 141.084 619.623 140.829 619.623C140.702 619.623 140.638 619.687 140.638 619.814V694.113C140.638 697.042 139.556 699.588 137.391 701.753C135.354 703.918 132.871 705 129.942 705H121.538ZM362.115 635.285C362.115 605.362 351.419 590.4 330.027 590.4C308.635 590.4 297.939 605.362 297.939 635.285C297.939 665.208 308.635 680.17 330.027 680.17C351.419 680.17 362.115 665.208 362.115 635.285ZM377.777 688.001C366.062 700.607 350.145 706.91 330.027 706.91C309.908 706.91 293.991 700.607 282.277 688.001C270.562 675.268 264.705 657.696 264.705 635.285C264.705 612.874 270.562 595.366 282.277 582.76C293.991 570.027 309.908 563.66 330.027 563.66C350.145 563.66 366.062 570.027 377.777 582.76C389.491 595.366 395.349 612.874 395.349 635.285C395.349 657.696 389.491 675.268 377.777 688.001ZM439.817 694.686L401.235 575.884C400.344 573.337 400.662 570.982 402.19 568.817C403.846 566.652 406.01 565.57 408.684 565.57H421.481C424.665 565.57 427.53 566.589 430.076 568.626C432.623 570.536 434.278 573.019 435.042 576.075L460.063 673.676C460.063 673.803 460.127 673.867 460.254 673.867C460.382 673.867 460.445 673.803 460.445 673.676L486.23 576.075C486.994 573.019 488.65 570.536 491.196 568.626C493.743 566.589 496.608 565.57 499.791 565.57H511.824C514.498 565.57 516.599 566.652 518.127 568.817C519.783 570.982 520.165 573.337 519.273 575.884L480.691 694.686C479.8 697.742 478.017 700.225 475.343 702.135C472.797 704.045 469.868 705 466.557 705H453.951C450.768 705 447.839 704.045 445.165 702.135C442.619 700.225 440.836 697.742 439.817 694.686ZM550.418 705C547.49 705 544.943 703.918 542.778 701.753C540.741 699.588 539.722 697.042 539.722 694.113V576.457C539.722 573.528 540.741 570.982 542.778 568.817C544.943 566.652 547.49 565.57 550.418 565.57H564.552C567.481 565.57 569.964 566.652 572.001 568.817C574.166 570.982 575.248 573.528 575.248 576.457V694.113C575.248 697.042 574.166 699.588 572.001 701.753C569.964 703.918 567.481 705 564.552 705H550.418ZM617.873 705C614.944 705 612.397 703.918 610.233 701.753C608.195 699.588 607.177 697.042 607.177 694.113V576.457C607.177 573.528 608.195 570.982 610.233 568.817C612.397 566.652 614.944 565.57 617.873 565.57H685.487C688.415 565.57 690.898 566.652 692.936 568.817C695.1 570.982 696.183 573.528 696.183 576.457V580.85C696.183 583.779 695.1 586.325 692.936 588.49C690.898 590.655 688.415 591.737 685.487 591.737H641.175C640.156 591.737 639.647 592.246 639.647 593.265V618.477C639.647 619.623 640.156 620.196 641.175 620.196H681.667C684.595 620.196 687.078 621.278 689.116 623.443C691.28 625.608 692.363 628.154 692.363 631.083V633.948C692.363 636.877 691.28 639.423 689.116 641.588C687.078 643.753 684.595 644.835 681.667 644.835H641.175C640.156 644.835 639.647 645.344 639.647 646.363V677.305C639.647 678.324 640.156 678.833 641.175 678.833H685.487C688.415 678.833 690.898 679.915 692.936 682.08C695.1 684.245 696.183 686.791 696.183 689.72V694.113C696.183 697.042 695.1 699.588 692.936 701.753C690.898 703.918 688.415 705 685.487 705H617.873Z" fill="black"/>
<path d="M100.759 514C97.8306 514 95.2839 512.918 93.1193 510.753C90.9546 508.588 89.8723 506.042 89.8723 503.113V385.457C89.8723 382.528 90.9546 379.982 93.1193 377.817C95.2839 375.652 97.8306 374.57 100.759 374.57H166.272C169.201 374.57 171.748 375.652 173.912 377.817C176.077 379.982 177.159 382.528 177.159 385.457V389.85C177.159 392.779 176.077 395.325 173.912 397.49C171.748 399.655 169.201 400.737 166.272 400.737H124.061C122.915 400.737 122.342 401.246 122.342 402.265V430.724C122.342 431.87 122.915 432.443 124.061 432.443H162.452C165.381 432.443 167.928 433.525 170.092 435.69C172.257 437.727 173.339 440.21 173.339 443.139V446.195C173.339 449.124 172.257 451.67 170.092 453.835C167.928 455.872 165.381 456.891 162.452 456.891H124.061C122.915 456.891 122.342 457.464 122.342 458.61V503.113C122.342 506.042 121.26 508.588 119.095 510.753C117.058 512.918 114.575 514 111.646 514H100.759ZM290.228 444.285C290.228 414.362 279.532 399.4 258.14 399.4C236.748 399.4 226.052 414.362 226.052 444.285C226.052 474.208 236.748 489.17 258.14 489.17C279.532 489.17 290.228 474.208 290.228 444.285ZM305.89 497.001C294.176 509.607 278.259 515.91 258.14 515.91C238.022 515.91 222.105 509.607 210.39 497.001C198.676 484.268 192.818 466.696 192.818 444.285C192.818 421.874 198.676 404.366 210.39 391.76C222.105 379.027 238.022 372.66 258.14 372.66C278.259 372.66 294.176 379.027 305.89 391.76C317.605 404.366 323.462 421.874 323.462 444.285C323.462 466.696 317.605 484.268 305.89 497.001ZM448.967 463.385C448.967 498.402 431.141 515.91 395.487 515.91C359.834 515.91 342.007 498.402 342.007 463.385V385.457C342.007 382.528 343.09 379.982 345.254 377.817C347.419 375.652 349.966 374.57 352.894 374.57H363.972C366.901 374.57 369.448 375.652 371.612 377.817C373.777 379.982 374.859 382.528 374.859 385.457V465.677C374.859 474.336 376.515 480.511 379.825 484.204C383.136 487.897 388.484 489.743 395.869 489.743C403.255 489.743 408.603 487.897 411.913 484.204C415.224 480.511 416.879 474.336 416.879 465.677V385.457C416.879 382.528 417.962 379.982 420.126 377.817C422.291 375.652 424.838 374.57 427.766 374.57H438.08C441.009 374.57 443.556 375.652 445.72 377.817C447.885 379.982 448.967 382.528 448.967 385.457V463.385ZM487.049 514C484.121 514 481.574 512.918 479.409 510.753C477.245 508.588 476.162 506.042 476.162 503.113V385.457C476.162 382.528 477.245 379.982 479.409 377.817C481.574 375.652 484.121 374.57 487.049 374.57H496.408C503.666 374.57 508.951 377.753 512.261 384.12L552.371 459.947C552.371 460.074 552.435 460.138 552.562 460.138C552.69 460.138 552.753 460.074 552.753 459.947V385.457C552.753 382.528 553.836 379.982 556 377.817C558.165 375.652 560.712 374.57 563.64 374.57H572.999C575.928 374.57 578.475 375.652 580.639 377.817C582.804 379.982 583.886 382.528 583.886 385.457V503.113C583.886 506.042 582.804 508.588 580.639 510.753C578.475 512.918 575.928 514 572.999 514H563.64C556.382 514 551.098 510.817 547.787 504.45L507.677 428.623C507.677 428.496 507.614 428.432 507.486 428.432C507.359 428.432 507.295 428.496 507.295 428.623V503.113C507.295 506.042 506.213 508.588 504.048 510.753C501.884 512.918 499.337 514 496.408 514H487.049ZM644.59 400.928V487.642C644.59 488.788 645.163 489.488 646.309 489.743C648.856 490.252 651.912 490.507 655.477 490.507C668.338 490.507 677.824 486.751 683.936 479.238C690.175 471.725 693.295 459.438 693.295 442.375C693.295 427.095 690.175 415.89 683.936 408.759C677.697 401.628 668.21 398.063 655.477 398.063C651.912 398.063 648.856 398.318 646.309 398.827C645.163 399.082 644.59 399.782 644.59 400.928ZM623.58 514.382C620.524 514.127 617.977 512.854 615.94 510.562C613.903 508.143 612.884 505.341 612.884 502.158V386.412C612.884 383.229 613.903 380.491 615.94 378.199C617.977 375.78 620.524 374.443 623.58 374.188C633.512 373.169 643.317 372.66 652.994 372.66C675.787 372.66 693.359 378.708 705.71 390.805C718.061 402.902 724.237 420.092 724.237 442.375C724.237 466.568 718.061 484.904 705.71 497.383C693.359 509.734 675.787 515.91 652.994 515.91C643.317 515.91 633.512 515.401 623.58 514.382Z" fill="black"/>
<path d="M228.882 327C225.954 327 223.407 325.918 221.242 323.753C219.078 321.588 217.995 319.042 217.995 316.113V198.457C217.995 195.528 219.078 192.982 221.242 190.817C223.407 188.652 225.954 187.57 228.882 187.57H238.241C245.499 187.57 250.784 190.753 254.094 197.12L294.204 272.947C294.204 273.074 294.268 273.138 294.395 273.138C294.523 273.138 294.586 273.074 294.586 272.947V198.457C294.586 195.528 295.669 192.982 297.833 190.817C299.998 188.652 302.545 187.57 305.473 187.57H314.832C317.761 187.57 320.308 188.652 322.472 190.817C324.637 192.982 325.72 195.528 325.72 198.457V316.113C325.72 319.042 324.637 321.588 322.472 323.753C320.308 325.918 317.761 327 314.832 327H305.473C298.215 327 292.931 323.817 289.62 317.45L249.51 241.623C249.51 241.496 249.447 241.432 249.319 241.432C249.192 241.432 249.128 241.496 249.128 241.623V316.113C249.128 319.042 248.046 321.588 245.881 323.753C243.717 325.918 241.17 327 238.241 327H228.882ZM443.532 257.285C443.532 227.362 432.836 212.4 411.444 212.4C390.052 212.4 379.356 227.362 379.356 257.285C379.356 287.208 390.052 302.17 411.444 302.17C432.836 302.17 443.532 287.208 443.532 257.285ZM459.194 310.001C447.48 322.607 431.563 328.91 411.444 328.91C391.326 328.91 375.409 322.607 363.694 310.001C351.98 297.268 346.122 279.696 346.122 257.285C346.122 234.874 351.98 217.366 363.694 204.76C375.409 192.027 391.326 185.66 411.444 185.66C431.563 185.66 447.48 192.027 459.194 204.76C470.909 217.366 476.766 234.874 476.766 257.285C476.766 279.696 470.909 297.268 459.194 310.001ZM495.686 214.501C492.757 214.501 490.21 213.419 488.046 211.254C485.881 209.089 484.799 206.543 484.799 203.614V198.457C484.799 195.528 485.881 192.982 488.046 190.817C490.21 188.652 492.757 187.57 495.686 187.57H580.872C583.8 187.57 586.347 188.652 588.512 190.817C590.676 192.982 591.759 195.528 591.759 198.457V203.614C591.759 206.543 590.676 209.089 588.512 211.254C586.347 213.419 583.8 214.501 580.872 214.501H556.424C555.405 214.501 554.896 215.01 554.896 216.029V316.113C554.896 319.042 553.813 321.588 551.649 323.753C549.484 325.918 546.937 327 544.009 327H532.549C529.62 327 527.073 325.918 524.909 323.753C522.744 321.588 521.662 319.042 521.662 316.113V216.029C521.662 215.01 521.152 214.501 520.134 214.501H495.686Z" fill="black"/>
</g>
<defs>
<clipPath id="clip0_102_2">
<rect width="805" height="750" fill="white"/>
</clipPath>
</defs>
</svg>
